# xmcd
#
# Track frame offsets:
#	150
#	8993
#	21183
#	30191
#	41934
#	50971
#	63102
#	74006
#	84407
#	95746
#	105875
#	115361
#	126906
#	136278
#	147369
#	158403
#	167813
#	178459
#	187438
#	196182
#	205950
#	216872
#	227222
#	236679
#	247121
#	256382
#
# Disc length: 3595 seconds
#
# Revision: 0
# Processed by: cddbd v1.4PL0 Copyright (c) Steve Scherf et al.
# Submitted via: EasyCDDAExtractor 4.6.0.1
#
DISCID=890e091a
DTITLE=Various Artist - Explosive Doo-Wops  Vol 09
DYEAR=1900
DGENRE=Blues
TTITLE0=Knight Lites (Gary and the) - Will You Go Steady
TTITLE1=Monorays - My Guardian Angel
TTITLE2=Fantastics - This Is My Wedding Day
TTITLE3=Larks - There Is A Girl
TTITLE4=Dedications - Mary Lou
TTITLE5=Bobby Capri and group - One Sided Love
TTITLE6=Essentials (Billy and the) - Lonely Weekend
TTITLE7=Diadems - Why Don't You Believe Me
TTITLE8=Del-Larks - Remember The Night
TTITLE9=Blen-Dells - Forever
TTITLE10=Tides - Who Told You
TTITLE11=Jades - Walking Along
TTITLE12=Chants - I Could Write A Book
TTITLE13=Windsors - Keep Me From Crying
TTITLE14=Dappers - We're In Love
TTITLE15=Victorians - Please Say You Do
TTITLE16=Len-Dells - (Don't Be A) Litterbug
TTITLE17=Dreamers - Natalie
TTITLE18=Academics - Somethin' Cool
TTITLE19=Lori Wood - But That Was Long Ago
TTITLE20=Ronnie Mathews and group - The Week Is Over
TTITLE21=Pageants (Tony Dee and the) - Make You My Queen
TTITLE22=Viscounts (Sammy Hagan and the) - Wild Bird
TTITLE23=Lyrics - The Girl I Love
TTITLE24=Kings - Let Me Know
TTITLE25=Coronets - Baby's Coming Home
EXTD=
EXTT0=
EXTT1=
EXTT2=
EXTT3=
EXTT4=
EXTT5=
EXTT6=
EXTT7=
EXTT8=
EXTT9=
EXTT10=
EXTT11=
EXTT12=
EXTT13=
EXTT14=
EXTT15=
EXTT16=
EXTT17=
EXTT18=
EXTT19=
EXTT20=
EXTT21=
EXTT22=
EXTT23=
EXTT24=
EXTT25=
PLAYORDER=
